<?xml version="1.0" encoding="UTF-8"?>
<svg xmlns="http://www.w3.org/2000/svg" viewBox="0 0 314.26 356.97">
  <defs>
    <style>
      .cls-1 {
        letter-spacing: .06em;
      }

      .cls-1, .cls-2, .cls-3, .cls-4, .cls-5 {
        font-family: Rubik-Light, Rubik;
        font-size: 64.16px;
        font-variation-settings: 'wght' 300;
        font-weight: 300;
      }

      .cls-1, .cls-2, .cls-3, .cls-4, .cls-5, .cls-6 {
        isolation: isolate;
      }

      .cls-1, .cls-2, .cls-3, .cls-4, .cls-5, .cls-7 {
        fill: #5c5c5c;
      }

      .cls-2 {
        letter-spacing: .02em;
      }

      .cls-8 {
        mix-blend-mode: color;
      }

      .cls-3 {
        letter-spacing: .1em;
      }

      .cls-4 {
        letter-spacing: .04em;
      }

      .cls-5 {
        letter-spacing: .04em;
      }

      .cls-9 {
        fill: #5f5f5f;
      }

      .cls-9, .cls-7 {
        stroke-width: 0px;
      }
    </style>
  </defs>
  <g class="cls-6">
    <g id="Layer_2" data-name="Layer 2">
      <g id="grayscale">
        <g id="logo">
          <g>
            <g>
              <text class="cls-5" transform="translate(0 327.08) scale(1.24 1)"><tspan x="0" y="0">M</tspan></text>
              <text class="cls-2" transform="translate(66.35 327.08) scale(1.24 1)"><tspan x="0" y="0">a</tspan></text>
              <text class="cls-1" transform="translate(111.86 327.08) scale(1.24 1)"><tspan x="0" y="0">mi</tspan></text>
              <text class="cls-4" transform="translate(211.4 327.08) scale(1.24 1)"><tspan x="0" y="0">b</tspan></text>
              <text class="cls-3" transform="translate(261.91 327.08) scale(1.24 1)"><tspan x="0" y="0">o</tspan></text>
            </g>
            <g class="cls-8">
              <path class="cls-7" d="m144.35.21C97,3.23,58.29,40.3,53.43,87.49c-5.4,52.5,30.72,97.64,79.5,106.62v-1.1c-5.56-3.34-9.28-9.41-9.28-16.37v-4.35c0-6.66,4.09-12.2,8.92-15.78,1.1-.81.77-2.52-.52-2.95-25.85-8.69-43.67-34.87-39.37-64.48,3.69-25.44,23.96-45.67,49.41-49.31,36.3-5.2,67.42,22.82,67.42,58.11,0,26.01-16.91,48.06-40.32,55.79-1.19.39-1.42,1.95-.4,2.67,5.14,3.66,9.09,9.17,9.12,15.96v4.35c0,7.52-4.35,14.01-10.67,17.13l.18.56c46.13-7.89,81.25-48.07,81.25-96.46-.03-56.18-47.37-101.31-104.32-97.67Z"/>
              <path class="cls-9" d="m30.89,249.21c1.6-1.93,3.24-3.82,4.81-5.71,16.41-19.73,27.47-44.16,47.34-60.41,14.74-12.05,33.11-18.56,49.64-28.01.29-.17.63.11.52.43-1.38,4.06-2.6,8.24-2.58,12.52.02,4.6,1.7,9.41,5.37,12.19,1.98,1.5,5.69,2.48,4.51,5.39-1.1,2.73-3.81,5.41-5.58,7.74-10.07,13.25-20.15,26.5-30.22,39.74-6.29,8.28-12.9,16.82-22.14,21.57-14.15,7.28-31.22,4.19-46.91,6.84-5.25.89-10.59,2.55-14.49,6.17.92-7.03,5.13-12.91,9.73-18.48v.02Z"/>
              <path class="cls-9" d="m270.49,249.21c-1.6-1.93-3.24-3.82-4.81-5.71-16.41-19.73-27.47-44.16-47.34-60.41-14.74-12.05-33.11-18.56-49.64-28.01-.29-.17-.63.11-.52.43,1.38,4.06,2.6,8.24,2.58,12.52-.02,4.6-1.7,9.41-5.37,12.19-1.98,1.5-5.69,2.48-4.51,5.39,1.1,2.73,3.81,5.41,5.58,7.74,10.07,13.25,20.15,26.5,30.22,39.74,6.29,8.28,12.9,16.82,22.14,21.57,14.15,7.28,31.22,4.19,46.91,6.84,5.25.89,10.59,2.55,14.49,6.17-.92-7.03-5.13-12.91-9.73-18.48v.02Z"/>
            </g>
          </g>
        </g>
      </g>
    </g>
  </g>
</svg>