<?xml version="1.0" encoding="UTF-8"?>
<svg id="Layer_2" data-name="Layer 2" xmlns="http://www.w3.org/2000/svg" viewBox="0 0 315.53 356.98">
  <defs>
    <style>
      .cls-1 {
        letter-spacing: .1em;
      }

      .cls-2 {
        fill: #231f20;
        font-family: Rubik-Regular, Rubik;
        font-size: 64.16px;
        font-variation-settings: 'wght' 400;
      }

      .cls-3 {
        letter-spacing: .04em;
      }

      .cls-4 {
        letter-spacing: .02em;
      }

      .cls-5 {
        letter-spacing: .06em;
      }

      .cls-6 {
        fill: #d92727;
      }

      .cls-6, .cls-7 {
        stroke-width: 0px;
      }

      .cls-7 {
        fill: #029247;
      }
    </style>
  </defs>
  <g id="logo">
    <g>
      <text class="cls-2" transform="translate(0 327.08) scale(1.24 1)"><tspan class="cls-3" x="0" y="0">M</tspan><tspan class="cls-4" x="53.51" y="0">a</tspan><tspan class="cls-5" x="90.21" y="0">mi</tspan><tspan class="cls-3" x="170.48" y="0">b</tspan><tspan class="cls-1" x="211.22" y="0">o</tspan></text>
      <g>
        <path class="cls-6" d="m144.35.21C97,3.23,58.29,40.3,53.43,87.49c-5.4,52.5,30.72,97.64,79.5,106.62v-1.1c-5.56-3.34-9.28-9.41-9.28-16.37v-4.35c0-6.66,4.09-12.2,8.92-15.78,1.1-.81.77-2.52-.52-2.95-25.85-8.69-43.67-34.87-39.37-64.48,3.69-25.44,23.96-45.67,49.41-49.31,36.3-5.2,67.42,22.82,67.42,58.11,0,26.01-16.91,48.06-40.32,55.79-1.19.39-1.42,1.95-.4,2.67,5.14,3.66,9.09,9.17,9.12,15.96v4.35c0,7.52-4.35,14.01-10.67,17.13l.18.56c46.13-7.89,81.25-48.07,81.25-96.46C248.64,41.7,201.3-3.43,144.35.21Z"/>
        <path class="cls-7" d="m30.89,249.21c1.6-1.93,3.24-3.82,4.81-5.71,16.41-19.73,27.47-44.16,47.34-60.41,14.74-12.05,33.11-18.56,49.64-28.01.29-.17.63.11.52.43-1.38,4.06-2.6,8.24-2.58,12.52.02,4.6,1.7,9.41,5.37,12.19,1.98,1.5,5.69,2.48,4.51,5.39-1.1,2.73-3.81,5.41-5.58,7.74-10.07,13.25-20.15,26.5-30.22,39.74-6.29,8.28-12.9,16.82-22.14,21.57-14.15,7.28-31.22,4.19-46.91,6.84-5.25.89-10.59,2.55-14.49,6.17.92-7.03,5.13-12.91,9.73-18.48Z"/>
        <path class="cls-7" d="m270.49,249.21c-1.6-1.93-3.24-3.82-4.81-5.71-16.41-19.73-27.47-44.16-47.34-60.41-14.74-12.05-33.11-18.56-49.64-28.01-.29-.17-.63.11-.52.43,1.38,4.06,2.6,8.24,2.58,12.52-.02,4.6-1.7,9.41-5.37,12.19-1.98,1.5-5.69,2.48-4.51,5.39,1.1,2.73,3.81,5.41,5.58,7.74,10.07,13.25,20.15,26.5,30.22,39.74,6.29,8.28,12.9,16.82,22.14,21.57,14.15,7.28,31.22,4.19,46.91,6.84,5.25.89,10.59,2.55,14.49,6.17-.92-7.03-5.13-12.91-9.73-18.48Z"/>
      </g>
    </g>
  </g>
</svg>